<?xml version="1.0" encoding="utf-8"?>
<svg version="1.1" xmlns:xlink="http://www.w3.org/1999/xlink" width="10px" height="16px" xmlns="http://www.w3.org/2000/svg">
  <g transform="matrix(1 0 0 1 -318 -23 )">
    <path d="M 1.5333333333333279 15.549999999999997  C 1.2666666666666604 15.538888888888891  1.022222222222215 15.444444444444446  0.7999999999999989 15.266666666666666  C 0.6222222222222218 15.04444444444444  0.5277777777777786 14.8  0.5166666666666657 14.533333333333331  C 0.5055555555555546 14.266666666666666  0.6000000000000014 14.033333333333331  0.7999999999999989 13.833333333333332  L 6.666666666666664 7.966666666666665  L 0.7666666666666657 2.0666666666666664  C 0.5888888888888886 1.8888888888888893  0.5055555555555546 1.6500000000000004  0.5166666666666657 1.3499999999999996  C 0.527777777777775 1.049999999999999  0.6222222222222218 0.81111111111111  0.7999999999999989 0.6333333333333329  C 1.0222222222222221 0.4111111111111114  1.2611111111111093 0.30555555555555713  1.5166666666666657 0.31666666666666643  C 1.7722222222222204 0.3277777777777793  2 0.43333333333333357  2.1999999999999975 0.6333333333333329  L 8.833333333333329 7.266666666666666  C 8.944444444444443 7.377777777777776  9.022222222222219 7.488888888888889  9.066666666666663 7.599999999999998  C 9.11111111111111 7.71111111111111  9.133333333333333 7.833333333333332  9.133333333333333 7.966666666666665  C 9.133333333333333 8.099999999999998  9.11111111111111 8.222222222222221  9.066666666666663 8.333333333333332  C 9.022222222222219 8.444444444444446  8.944444444444443 8.555555555555557  8.833333333333329 8.666666666666664  L 2.233333333333329 15.266666666666666  C 2.0333333333333314 15.466666666666669  1.7999999999999972 15.56111111111111  1.5333333333333279 15.549999999999997  Z " fill-rule="nonzero" fill="#4a4a4a" stroke="none" transform="matrix(1 0 0 1 318 23 )" />
  </g>
</svg>