<?xml version="1.0" encoding="utf-8"?>
<svg version="1.1" xmlns:xlink="http://www.w3.org/1999/xlink" width="16px" height="11px" xmlns="http://www.w3.org/2000/svg">
  <g transform="matrix(1 0 0 1 -49 -788 )">
    <path d="M 15 0.4800000000000004  L 14.989999999999998 0.4800000000000004  C 14.599999999999998 0.08999999999999986  13.969999999999999 0.08999999999999986  13.579999999999998 0.4800000000000004  L 6.039999999999999 8.02  L 2.4299999999999997 4.41  C 2.039999999999999 4.02  1.4100000000000001 4.02  1.0199999999999996 4.41  C 0.629999999999999 4.800000000000001  0.629999999999999 5.43  1.0199999999999996 5.820000000000001  L 5.34 10.14  C 5.529999999999999 10.330000000000002  5.779999999999999 10.43  6.050000000000001 10.43  C 6.320000000000002 10.43  6.57 10.32  6.760000000000002 10.14  L 15 1.8900000000000006  C 15.39 1.5  15.39 0.870000000000001  15 0.4800000000000004  Z " fill-rule="nonzero" fill="#014a93" stroke="none" transform="matrix(1 0 0 1 49 788 )" />
  </g>
</svg>