<?xml version="1.0" encoding="utf-8"?>
<svg version="1.1" xmlns:xlink="http://www.w3.org/1999/xlink" width="9px" height="9px" xmlns="http://www.w3.org/2000/svg">
  <g transform="matrix(1 0 0 1 -47 -879 )">
    <path d="M 0.20999999999999908 4.66  C 0.20999999999999908 7.040000000000001  2.1499999999999986 8.98  4.529999999999999 8.98  C 6.91 8.98  8.85 7.040000000000001  8.85 4.66  C 8.85 2.2799999999999994  6.91 0.33999999999999986  4.529999999999999 0.33999999999999986  C 2.1499999999999986 0.33999999999999986  0.20999999999999908 2.2799999999999994  0.20999999999999908 4.66  Z M 2.209999999999999 4.66  C 2.209999999999999 3.379999999999999  3.25 2.34  4.529999999999999 2.3400000000000007  C 5.809999999999999 2.3400000000000007  6.85 3.380000000000001  6.85 4.66  C 6.85 5.9399999999999995  5.809999999999999 6.98  4.529999999999999 6.98  C 3.25 6.98  2.209999999999999 5.940000000000001  2.209999999999999 4.66  Z " fill-rule="nonzero" fill="#014a93" stroke="none" transform="matrix(1 0 0 1 47 879 )" />
  </g>
</svg>