<?xml version="1.0" encoding="utf-8"?>
<svg version="1.1" xmlns:xlink="http://www.w3.org/1999/xlink" width="13px" height="13px" xmlns="http://www.w3.org/2000/svg">
  <g transform="matrix(1 0 0 1 -41 -796 )">
    <path d="M 13 12  C 13 11.45  12.55 11  12 11  L 5 11  C 3.3500000000000005 11  2 9.649999999999999  2 8  L 2 1  C 2 0.4499999999999993  1.55 0  1 0  C 0.44999999999999996 0  0 0.4499999999999993  0 1  L 0 8  C 0 10.759999999999998  2.24 13  5 13  L 12 13  C 12.55 13  13 12.55  13 12  Z " fill-rule="nonzero" fill="#014a93" stroke="none" transform="matrix(1 0 0 1 41 796 )" />
  </g>
</svg>