<?xml version="1.0" encoding="utf-8"?>
<svg version="1.1" xmlns:xlink="http://www.w3.org/1999/xlink" width="13px" height="8px" xmlns="http://www.w3.org/2000/svg">
  <g transform="matrix(1 0 0 1 -45 -889 )">
    <path d="M 13 6.66  C 13 3.09  10.1 0.19000000000000128  6.529999999999999 0.1899999999999995  C 2.959999999999999 0.1899999999999995  0.05999999999999961 3.09  0.05999999999999961 6.66  C 0.05999999999999961 7.210000000000001  0.5099999999999998 7.66  1.0599999999999996 7.66  C 1.6099999999999994 7.66  2.0599999999999996 7.210000000000001  2.0599999999999996 6.66  C 2.0599999999999996 4.199999999999999  4.059999999999999 2.1900000000000013  6.529999999999999 2.1900000000000013  C 9 2.1900000000000013  11 4.190000000000001  11 6.66  C 11 7.210000000000001  11.45 7.66  12 7.66  C 12.55 7.66  13 7.210000000000001  13 6.66  Z " fill-rule="nonzero" fill="#014a93" stroke="none" transform="matrix(1 0 0 1 45 889 )" />
  </g>
</svg>