<?xml version="1.0" encoding="utf-8"?>
<svg version="1.1" xmlns:xlink="http://www.w3.org/1999/xlink" width="32px" height="26px" xmlns="http://www.w3.org/2000/svg">
  <g transform="matrix(1 0 0 1 -41 -875 )">
    <path d="M 32 4  C 32 1.79  30.21 0  28 0  L 4 0  C 1.79 0  0 1.79  0 4  L 0 22  C 0 24.21  1.79 26  4 26  L 28 26  C 30.21 26  32 24.21  32 22  L 32 4  Z M 30 4  L 30 22  C 30 23.1  29.1 24  28 24  L 4 24  C 2.9 24  2 23.1  2 22  L 2 4  C 2 2.9  2.9 2  4 2  L 28 2  C 29.1 2  30 2.9  30 4  Z " fill-rule="nonzero" fill="#014a93" stroke="none" transform="matrix(1 0 0 1 41 875 )" />
  </g>
</svg>