<?xml version="1.0" encoding="utf-8"?>
<svg version="1.1" xmlns:xlink="http://www.w3.org/1999/xlink" width="13px" height="13px" xmlns="http://www.w3.org/2000/svg">
  <g transform="matrix(1 0 0 1 -41 -777 )">
    <path d="M 0 11.99  C 0 12.540000000000001  0.45 12.99  1 12.99  C 1.55 12.99  2 12.540000000000001  2 11.99  L 2 5  C 2 3.3500000000000005  3.3500000000000005 2  5 2  L 12 2  C 12.55 2  13 1.55  13 1  C 13 0.44999999999999996  12.55 0  12 0  L 5 0  C 2.24 0  0 2.24  0 5  L 0 11.99  Z " fill-rule="nonzero" fill="#014a93" stroke="none" transform="matrix(1 0 0 1 41 777 )" />
  </g>
</svg>