<?xml version="1.0" encoding="utf-8"?>
<svg version="1.1" xmlns:xlink="http://www.w3.org/1999/xlink" width="13px" height="13px" xmlns="http://www.w3.org/2000/svg">
  <g transform="matrix(1 0 0 1 -60 -777 )">
    <path d="M 13 5  C 13 2.24  10.759999999999998 0  8 0  L 1 0  C 0.4499999999999993 0  0 0.45  0 1  C 0 1.55  0.4499999999999993 2  1 2  L 8 2  C 9.649999999999999 2  11 3.3500000000000005  11 5  L 11 11.99  C 11 12.540000000000001  11.45 12.99  12 12.99  C 12.55 12.99  13 12.540000000000001  13 11.99  L 13 5  Z " fill-rule="nonzero" fill="#014a93" stroke="none" transform="matrix(1 0 0 1 60 777 )" />
  </g>
</svg>